<?xml version="1.0" encoding="UTF-8"?>
<svg id="Layer_2" data-name="Layer 2" xmlns="http://www.w3.org/2000/svg" xmlns:xlink="http://www.w3.org/1999/xlink" viewBox="0 0 365 365">
  <defs>
    <style>
      .cls-1 {
        fill: url(#radial-gradient-5);
      }

      .cls-2 {
        fill: url(#radial-gradient);
      }

      .cls-3 {
        fill: url(#radial-gradient-3);
      }

      .cls-4 {
        fill: url(#radial-gradient-8);
      }

      .cls-5 {
        fill: url(#radial-gradient-2);
      }

      .cls-6 {
        fill: url(#radial-gradient-4);
      }

      .cls-7 {
        fill: #0086e6;
      }

      .cls-8 {
        fill: url(#radial-gradient-6);
      }

      .cls-9 {
        fill: #35494c;
      }

      .cls-10 {
        fill: url(#radial-gradient-7);
      }
    </style>
    <radialGradient id="radial-gradient" cx="127.64" cy="94.19" fx="127.64" fy="94.19" r="170.97" gradientUnits="userSpaceOnUse">
      <stop offset="0" stop-color="#9b43ff"/>
      <stop offset="1" stop-color="#4800c5"/>
    </radialGradient>
    <radialGradient id="radial-gradient-2" cx="158.52" cy="52.35" fx="158.52" fy="52.35" r="125.95" gradientUnits="userSpaceOnUse">
      <stop offset="0" stop-color="#fbac40"/>
      <stop offset="1" stop-color="#ef7100"/>
    </radialGradient>
    <radialGradient id="radial-gradient-3" cx="99.61" cy="180.31" fx="99.61" fy="180.31" r="187.21" gradientUnits="userSpaceOnUse">
      <stop offset="0" stop-color="#66d1d9"/>
      <stop offset="1" stop-color="#0086e6"/>
    </radialGradient>
    <radialGradient id="radial-gradient-4" cx="93.52" cy="188.84" fx="93.52" fy="188.84" r="138.87" gradientUnits="userSpaceOnUse">
      <stop offset="0" stop-color="#6dd393"/>
      <stop offset="1" stop-color="#46a244"/>
    </radialGradient>
    <radialGradient id="radial-gradient-5" cy="180.31" fy="180.31" r="187.21" xlink:href="#radial-gradient-3"/>
    <radialGradient id="radial-gradient-6" cx="127.64" cy="94.19" fx="127.64" fy="94.19" r="170.97" xlink:href="#radial-gradient"/>
    <radialGradient id="radial-gradient-7" cx="158.92" cy="53.16" fx="158.92" fy="53.16" r="98.28" xlink:href="#radial-gradient-4"/>
    <radialGradient id="radial-gradient-8" cx="158.52" cy="52.35" fx="158.52" fy="52.35" r="125.95" xlink:href="#radial-gradient-2"/>
  </defs>
  <g id="Layer_1" data-name="Layer 1">
    <g>
      <path class="cls-2" d="M109.02,169.99c3.09-22.73,9.93-44.77,19.23-65.65,12.99-.44,26.51,1.88,39.22,4.58,71.33,15.15,141.48,64.37,174.54,129.99,1.87,3.71,8.73,17.54,9.1,20.7.41,3.49-5.63,13.36-7.68,16.75-12.86,21.23-31.32,40.89-51.63,55.13-1.22.85-8.11,5.68-8.73,5.78-4.58.76-19.38-8.89-23.23-12.11-29.24-24.43-31.53-63.68-49.01-95.09-20.48-36.8-59.63-59.58-101.81-60.08Z"/>
      <path class="cls-5" d="M362.79,233.01c-1.33.24-.93-.08-1.3-.75-1.98-3.59-3.52-8.11-5.6-11.9-16.86-30.73-42.77-56.79-71.09-77.09-43.43-31.13-95.41-50.45-148.95-54.37l18.78-29.06c.69-.4,12.88,3.23,15.05,3.69,20.92,4.48,40.97,3.66,62.04.77,22.45-3.08,46.48-11.24,68.91-11.6,2.1-.03,12.92.45,14.03,1.17,3.92,2.54,13.06,13.97,16.28,18.16,35.23,45.78,46.27,105.01,31.84,160.97Z"/>
      <path class="cls-3" d="M107.64,186.97c.38-.13,6.93.48,8.01.6,23.3,2.59,47.12,15,62.5,32.59,29.4,33.62,27.08,83.84,61.53,114.65,6.43,5.75,12.49,8.74,19.67,13,.41.24,1.61.66,1.06,1.29-24.57,10.99-52.05,16.76-79.05,15.45-45.33-36.21-72.46-94.87-74.71-152.81-.24-6.28-.7-16.86,0-22.81.1-.82-.02-1.62.99-1.96Z"/>
      <path class="cls-6" d="M86.26,188.08c-1.6,24.76-.62,49.26,4.96,73.52,6.37,27.74,19.1,55.7,35.41,78.94l15.06,19.65c-47.84-9.98-92.79-43.43-117.14-85.58-4.99-8.64-5.6-11.68-4.77-22.04,2.57-32.46,35-60.83,66.49-64.48Z"/>
      <path class="cls-1" d="M110.76,103.5c-10.14,21.22-17.75,43.75-21.65,67.02-30.34,3.48-59.31,20.29-74.71,46.93-2.72,4.7-4.62,9.79-6.88,14.7-.27.58-.34,1.37-1.18,1.44-.65-5.31-2.37-10.39-3.32-15.64-5.22-28.87-3.55-58.06,4.03-86.32,31.25-18.71,67.33-27.4,103.71-28.13Z"/>
      <path class="cls-8" d="M111.34,15.4c3.58,16.48,15.73,30.21,30.34,37.93l-.02.83c-8.33,10.82-16.56,21.88-22.82,34.06-35.14.05-70.5,6.16-102.59,20.51C34.66,67.04,69.23,32.84,111.34,15.4Z"/>
      <path class="cls-10" d="M296.87,38.14c-19.32.11-37.99,5.83-56.98,8.66-24.32,3.63-49.7,5.17-73.7-1.08,11.34-13.64,24.67-26.56,38.82-37.31,1.46-1.11,6.17-5.09,7.29-5.55,2.02-.82,12.27,1.65,15.15,2.31,24.96,5.71,49.24,17.4,69.42,32.96Z"/>
      <path class="cls-4" d="M194.77.23c.22.97-.31,1.18-.88,1.74-3.76,3.66-9.11,7.21-13.12,10.8-9.75,8.69-19.1,17.98-27.74,27.76-13.02-5.46-23.44-17.78-24.76-32.12C150.01,2.49,172.11-.95,194.77.23Z"/>
    </g>
  </g>
</svg>
