<?xml version="1.0" encoding="UTF-8"?>
<svg id="Layer_2" data-name="Layer 2" xmlns="http://www.w3.org/2000/svg" xmlns:xlink="http://www.w3.org/1999/xlink" viewBox="0 0 1162.64 364.73">
  <defs>
    <style>
      .cls-1 {
        fill: url(#radial-gradient-5);
      }

      .cls-2 {
        fill: url(#radial-gradient);
      }

      .cls-3 {
        fill: url(#radial-gradient-3);
      }

      .cls-4 {
        fill: url(#radial-gradient-8);
      }

      .cls-5 {
        fill: url(#radial-gradient-2);
      }

      .cls-6 {
        fill: url(#radial-gradient-4);
      }

      .cls-7 {
        fill: #0086e6;
      }

      .cls-8 {
        fill: url(#radial-gradient-6);
      }

      .cls-9 {
        fill: #35494c;
      }

      .cls-10 {
        fill: url(#radial-gradient-7);
      }
    </style>
    <radialGradient id="radial-gradient" cx="127.64" cy="94.19" fx="127.64" fy="94.19" r="170.97" gradientUnits="userSpaceOnUse">
      <stop offset="0" stop-color="#9b43ff"/>
      <stop offset="1" stop-color="#4800c5"/>
    </radialGradient>
    <radialGradient id="radial-gradient-2" cx="158.52" cy="52.35" fx="158.52" fy="52.35" r="125.95" gradientUnits="userSpaceOnUse">
      <stop offset="0" stop-color="#fbac40"/>
      <stop offset="1" stop-color="#ef7100"/>
    </radialGradient>
    <radialGradient id="radial-gradient-3" cx="99.61" cy="180.31" fx="99.61" fy="180.31" r="187.21" gradientUnits="userSpaceOnUse">
      <stop offset="0" stop-color="#66d1d9"/>
      <stop offset="1" stop-color="#0086e6"/>
    </radialGradient>
    <radialGradient id="radial-gradient-4" cx="93.52" cy="188.84" fx="93.52" fy="188.84" r="138.87" gradientUnits="userSpaceOnUse">
      <stop offset="0" stop-color="#6dd393"/>
      <stop offset="1" stop-color="#46a244"/>
    </radialGradient>
    <radialGradient id="radial-gradient-5" cy="180.31" fy="180.31" r="187.21" xlink:href="#radial-gradient-3"/>
    <radialGradient id="radial-gradient-6" cx="127.64" cy="94.19" fx="127.64" fy="94.19" r="170.97" xlink:href="#radial-gradient"/>
    <radialGradient id="radial-gradient-7" cx="158.92" cy="53.16" fx="158.92" fy="53.16" r="98.28" xlink:href="#radial-gradient-4"/>
    <radialGradient id="radial-gradient-8" cx="158.52" cy="52.35" fx="158.52" fy="52.35" r="125.95" xlink:href="#radial-gradient-2"/>
  </defs>
  <g id="Layer_1" data-name="Layer 1">
    <g>
      <path class="cls-2" d="M109.02,169.99c3.09-22.73,9.93-44.77,19.23-65.65,12.99-.44,26.51,1.88,39.22,4.58,71.33,15.15,141.48,64.37,174.54,129.99,1.87,3.71,8.73,17.54,9.1,20.7.41,3.49-5.63,13.36-7.68,16.75-12.86,21.23-31.32,40.89-51.63,55.13-1.22.85-8.11,5.68-8.73,5.78-4.58.76-19.38-8.89-23.23-12.11-29.24-24.43-31.53-63.68-49.01-95.09-20.48-36.8-59.63-59.58-101.81-60.08Z"/>
      <path class="cls-5" d="M362.79,233.01c-1.33.24-.93-.08-1.3-.75-1.98-3.59-3.52-8.11-5.6-11.9-16.86-30.73-42.77-56.79-71.09-77.09-43.43-31.13-95.41-50.45-148.95-54.37l18.78-29.06c.69-.4,12.88,3.23,15.05,3.69,20.92,4.48,40.97,3.66,62.04.77,22.45-3.08,46.48-11.24,68.91-11.6,2.1-.03,12.92.45,14.03,1.17,3.92,2.54,13.06,13.97,16.28,18.16,35.23,45.78,46.27,105.01,31.84,160.97Z"/>
      <path class="cls-3" d="M107.64,186.97c.38-.13,6.93.48,8.01.6,23.3,2.59,47.12,15,62.5,32.59,29.4,33.62,27.08,83.84,61.53,114.65,6.43,5.75,12.49,8.74,19.67,13,.41.24,1.61.66,1.06,1.29-24.57,10.99-52.05,16.76-79.05,15.45-45.33-36.21-72.46-94.87-74.71-152.81-.24-6.28-.7-16.86,0-22.81.1-.82-.02-1.62.99-1.96Z"/>
      <path class="cls-6" d="M86.26,188.08c-1.6,24.76-.62,49.26,4.96,73.52,6.37,27.74,19.1,55.7,35.41,78.94l15.06,19.65c-47.84-9.98-92.79-43.43-117.14-85.58-4.99-8.64-5.6-11.68-4.77-22.04,2.57-32.46,35-60.83,66.49-64.48Z"/>
      <path class="cls-1" d="M110.76,103.5c-10.14,21.22-17.75,43.75-21.65,67.02-30.34,3.48-59.31,20.29-74.71,46.93-2.72,4.7-4.62,9.79-6.88,14.7-.27.58-.34,1.37-1.18,1.44-.65-5.31-2.37-10.39-3.32-15.64-5.22-28.87-3.55-58.06,4.03-86.32,31.25-18.71,67.33-27.4,103.71-28.13Z"/>
      <path class="cls-8" d="M111.34,15.4c3.58,16.48,15.73,30.21,30.34,37.93l-.02.83c-8.33,10.82-16.56,21.88-22.82,34.06-35.14.05-70.5,6.16-102.59,20.51C34.66,67.04,69.23,32.84,111.34,15.4Z"/>
      <path class="cls-10" d="M296.87,38.14c-19.32.11-37.99,5.83-56.98,8.66-24.32,3.63-49.7,5.17-73.7-1.08,11.34-13.64,24.67-26.56,38.82-37.31,1.46-1.11,6.17-5.09,7.29-5.55,2.02-.82,12.27,1.65,15.15,2.31,24.96,5.71,49.24,17.4,69.42,32.96Z"/>
      <path class="cls-4" d="M194.77.23c.22.97-.31,1.18-.88,1.74-3.76,3.66-9.11,7.21-13.12,10.8-9.75,8.69-19.1,17.98-27.74,27.76-13.02-5.46-23.44-17.78-24.76-32.12C150.01,2.49,172.11-.95,194.77.23Z"/>
    </g>
    <g>
      <g>
        <path class="cls-7" d="M568.37,22.55h-90.4v85.44h81.65v11.08h-81.65v86.03h90.4v11.08h-103.52V11.47h103.52v11.08Z"/>
        <path class="cls-7" d="M572.9,220.71h-112.58V6.94h112.58v20.13h-90.4v76.39h81.65v20.13h-81.65v76.97h90.4v20.13ZM469.37,211.66h94.47v-2.03h-90.4v-95.08h81.65v-2.03h-81.65V18.03h90.4v-2.03h-94.47v195.66Z"/>
      </g>
      <g>
        <path class="cls-7" d="M605.99,217.06c-6.42,0-11.37-4.67-11.37-11.37s4.96-11.37,11.37-11.37,11.08,4.67,11.08,11.37-4.96,11.37-11.08,11.37Z"/>
        <path class="cls-7" d="M605.99,221.59c-9.06,0-15.9-6.84-15.9-15.9s6.84-15.9,15.9-15.9,15.61,6.84,15.61,15.9-6.71,15.9-15.61,15.9ZM605.99,198.84c-4.03,0-6.85,2.81-6.85,6.85s2.81,6.85,6.85,6.85c3.8,0,6.55-2.88,6.55-6.85s-2.76-6.85-6.55-6.85Z"/>
      </g>
      <g>
        <path class="cls-7" d="M755.01,22.55h-90.4v85.44h81.65v11.08h-81.65v86.03h90.4v11.08h-103.52V11.47h103.52v11.08Z"/>
        <path class="cls-7" d="M759.53,220.71h-112.58V6.94h112.58v20.13h-90.4v76.39h81.65v20.13h-81.65v76.97h90.4v20.13ZM656.01,211.66h94.47v-2.03h-90.4v-95.08h81.65v-2.03h-81.65V18.03h90.4v-2.03h-94.47v195.66Z"/>
      </g>
      <g>
        <path class="cls-7" d="M792.63,217.06c-6.42,0-11.37-4.67-11.37-11.37s4.96-11.37,11.37-11.37,11.08,4.67,11.08,11.37-4.96,11.37-11.08,11.37Z"/>
        <path class="cls-7" d="M792.63,221.59c-9.06,0-15.9-6.84-15.9-15.9s6.84-15.9,15.9-15.9,15.61,6.84,15.61,15.9-6.71,15.9-15.61,15.9ZM792.63,198.84c-4.03,0-6.85,2.81-6.85,6.85s2.81,6.85,6.85,6.85c3.8,0,6.55-2.88,6.55-6.85s-2.76-6.85-6.55-6.85Z"/>
      </g>
      <g>
        <path class="cls-7" d="M897.32,218.23c-41.12,0-65.03-23.91-67.36-52.49h13.71c2.33,16.91,15.16,41.12,53.66,41.12,30.91,0,49.87-18.66,49.87-41.99,0-66.2-114.31-24.79-114.31-102.65,0-29.16,24.49-52.78,62.7-52.78s59.49,22.45,63.57,46.37h-14c-2.92-14.29-17.79-34.99-49.87-34.99-26.83-.29-49.28,15.16-49.28,41.12,0,66.2,114.31,25.66,114.31,102.65,0,26.25-21,53.66-62.99,53.66Z"/>
        <path class="cls-7" d="M897.32,222.75c-46.46,0-69.57-28.45-71.88-56.65l-.4-4.89h22.56l.54,3.91c1.2,8.73,8.31,37.21,49.17,37.21,26.69,0,45.34-15.41,45.34-37.47,0-28.28-23.32-34.47-50.32-41.65-30-7.97-64-17.01-64-61,0-33.21,28.27-57.31,67.22-57.31,43.9,0,64.09,27,68.03,50.13l.9,5.29h-23.06l-.74-3.62c-2.22-10.85-14.56-31.37-45.43-31.37-.23,0-.46,0-.69,0-13.81,0-26.25,4.51-34.25,12.43-6.42,6.35-9.82,14.71-9.82,24.16,0,28.38,23.44,34.71,50.58,42.03,29.88,8.06,63.74,17.2,63.74,60.62,0,28.91-23.19,58.18-67.52,58.18ZM835.12,170.26c4.15,22.35,24.27,43.44,62.2,43.44s58.46-24.72,58.46-49.13c0-36.48-27.71-43.96-57.04-51.87-28.16-7.6-57.27-15.46-57.27-50.77,0-11.93,4.32-22.51,12.5-30.6,9.85-9.74,24.96-15.23,41.36-15.05,29.79,0,47.99,17.51,53.33,34.99h4.79c-5.39-18.25-23.01-37.31-57.88-37.31s-58.17,20.29-58.17,48.25c0,37.03,27.82,44.42,57.27,52.25,28.05,7.45,57.05,15.16,57.05,50.4,0,27.39-22.37,46.52-54.39,46.52-36.01,0-53.05-20.57-57.46-41.12h-4.74Z"/>
      </g>
      <g>
        <path class="cls-7" d="M997.63,217.06c-6.42,0-11.37-4.67-11.37-11.37s4.96-11.37,11.37-11.37,11.08,4.67,11.08,11.37-4.96,11.37-11.08,11.37Z"/>
        <path class="cls-7" d="M997.63,221.59c-9.06,0-15.9-6.84-15.9-15.9s6.84-15.9,15.9-15.9,15.61,6.84,15.61,15.9-6.71,15.9-15.61,15.9ZM997.63,198.84c-4.03,0-6.85,2.81-6.85,6.85s2.81,6.85,6.85,6.85c3.8,0,6.55-2.88,6.55-6.85s-2.76-6.85-6.55-6.85Z"/>
      </g>
      <g>
        <path class="cls-7" d="M1025.5,11.47h131.77v11.08h-59.32v193.63h-13.12V22.55h-59.32v-11.08Z"/>
        <path class="cls-7" d="M1102.47,220.71h-22.18V27.08h-59.32V6.94h140.82v20.13h-59.32v193.63ZM1089.35,211.66h4.07V18.03h59.32v-2.03h-122.72v2.03h59.32v193.63Z"/>
      </g>
      <g>
        <path class="cls-7" d="M1147.03,217.06c-6.42,0-11.37-4.67-11.37-11.37s4.96-11.37,11.37-11.37,11.08,4.67,11.08,11.37-4.96,11.37-11.08,11.37Z"/>
        <path class="cls-7" d="M1147.03,221.59c-9.06,0-15.9-6.84-15.9-15.9s6.84-15.9,15.9-15.9,15.61,6.84,15.61,15.9-6.71,15.9-15.61,15.9ZM1147.03,198.84c-4.03,0-6.85,2.81-6.85,6.85s2.81,6.85,6.85,6.85c3.8,0,6.55-2.88,6.55-6.85s-2.76-6.85-6.55-6.85Z"/>
      </g>
    </g>
    <g>
      <g>
        <path class="cls-9" d="M462.19,274.18h42.77v4.49h-37.45v34.62h32.73v4.49h-32.73v39.34h-5.32v-82.94Z"/>
        <path class="cls-9" d="M469.27,358.88h-8.83v-86.46h46.28v8.01h-37.45v31.1h32.73v8h-32.73v39.34ZM463.95,355.37h1.8v-39.34h32.73v-.97h-32.73v-38.13h37.45v-.98h-39.26v79.43Z"/>
      </g>
      <g>
        <path class="cls-9" d="M556.01,358.07c-23.16,0-40.29-17.49-40.29-42.3s17.13-42.3,40.29-42.3,40.29,17.37,40.29,42.3-17.13,42.3-40.29,42.3ZM556.01,353.34c19.49,0,34.74-14.3,34.74-37.57s-15.24-37.69-34.74-37.69-34.85,14.3-34.85,37.69,15.36,37.57,34.85,37.57Z"/>
        <path class="cls-9" d="M556.01,359.83c-24.36,0-42.05-18.53-42.05-44.06s17.68-44.05,42.05-44.05,42.05,18.53,42.05,44.05-17.68,44.06-42.05,44.06ZM556.01,275.23c-22.33,0-38.53,17.05-38.53,40.54s16.21,40.54,38.53,40.54,38.53-17.05,38.53-40.54-16.2-40.54-38.53-40.54ZM556.01,355.1c-21.56,0-36.61-16.17-36.61-39.33s15.06-39.45,36.61-39.45,36.49,16.22,36.49,39.45-15.01,39.33-36.49,39.33ZM556.01,279.84c-19.49,0-33.1,14.78-33.1,35.93s13.61,35.81,33.1,35.81,32.98-14.73,32.98-35.81-13.56-35.93-32.98-35.93Z"/>
      </g>
      <g>
        <path class="cls-9" d="M611.9,274.18h5.32v51.87c0,19.73,10.04,27.17,23.75,27.17s23.39-7.44,23.39-27.17v-51.87h5.32v51.75c0,22.45-12.17,32.02-28.71,32.02s-29.06-9.57-29.06-32.02v-51.75Z"/>
        <path class="cls-9" d="M640.96,359.71c-19.59,0-30.82-12.31-30.82-33.78v-53.51h8.83v53.63c0,16.86,7.4,25.42,21.99,25.42s21.64-8.55,21.64-25.42v-53.63h8.83v53.51c0,21.47-11.1,33.78-30.47,33.78ZM613.65,275.94v49.99c0,19.51,9.7,30.26,27.31,30.26s26.95-10.75,26.95-30.26v-49.99h-1.8v50.11c0,23.91-13.68,28.93-25.15,28.93-16.45,0-25.51-10.27-25.51-28.93v-50.11h-1.8Z"/>
      </g>
      <g>
        <path class="cls-9" d="M747.89,274.3v82.82h-5.32l-48.68-74.2v74.2h-5.32v-82.82h5.32l48.68,73.96v-73.96h5.32Z"/>
        <path class="cls-9" d="M749.64,358.88h-8.02l-45.97-70.07v70.07h-8.83v-86.34h8.02l45.97,69.85v-69.85h8.83v86.34ZM743.52,355.37h2.61v-79.31h-1.8v78.07l-51.38-78.07h-2.61v79.31h1.8v-78.32l51.38,78.32Z"/>
      </g>
      <g>
        <path class="cls-9" d="M834.49,315.77c0,25.99-15.6,41.35-43.83,41.35h-23.28v-82.94h23.28c28.24,0,43.83,15.6,43.83,41.59ZM790.66,352.64c25.52,0,38.4-14.06,38.4-36.86s-12.88-37.1-38.4-37.1h-17.96v73.96h17.96Z"/>
        <path class="cls-9" d="M790.66,358.88h-25.03v-86.46h25.03c28.97,0,45.59,15.8,45.59,43.35s-16.62,43.11-45.59,43.11ZM769.14,355.37h21.52c26.74,0,42.08-14.43,42.08-39.6s-15.34-39.83-42.08-39.83h-21.52v79.43ZM790.66,354.39h-19.72v-77.48h19.72c25.52,0,40.16,14.16,40.16,38.85s-14.64,38.62-40.16,38.62ZM774.46,350.88h16.2c23.63,0,36.64-12.47,36.64-35.11s-13.01-35.34-36.64-35.34h-16.2v70.45Z"/>
      </g>
      <g>
        <path class="cls-9" d="M897.59,335.86h-39.34l-7.92,21.27h-5.79l30.48-81.05h5.91l30.36,81.05h-5.79l-7.92-21.27ZM877.98,283.05l-18.08,48.32h36.04l-17.96-48.32Z"/>
        <path class="cls-9" d="M913.83,358.88h-9.54l-7.92-21.27h-36.9l-7.92,21.27h-9.55l31.8-84.56h8.34l31.68,84.56ZM906.73,355.37h2.03l-29.05-77.54h-3.47l-29.16,77.54h2.03l7.92-21.27h41.78l7.92,21.27ZM898.46,333.13h-41.1l20.62-55.11,20.48,55.11ZM862.43,329.61h30.97l-15.44-41.54-15.54,41.54Z"/>
      </g>
      <g>
        <path class="cls-9" d="M917.91,274.18h52.58v4.49h-23.63v78.45h-5.32v-78.45h-23.63v-4.49Z"/>
        <path class="cls-9" d="M948.62,358.88h-8.83v-78.45h-23.63v-8.01h56.09v8.01h-23.63v78.45ZM943.3,355.37h1.8v-78.45h23.63v-.98h-49.06v.98h23.63v78.45Z"/>
      </g>
      <g>
        <path class="cls-9" d="M983.13,274.18h5.32v82.94h-5.32v-82.94Z"/>
        <path class="cls-9" d="M990.21,358.88h-8.83v-86.46h8.83v86.46ZM984.89,355.37h1.8v-79.43h-1.8v79.43Z"/>
      </g>
      <g>
        <path class="cls-9" d="M1044.93,358.07c-23.16,0-40.29-17.49-40.29-42.3s17.13-42.3,40.29-42.3,40.29,17.37,40.29,42.3-17.13,42.3-40.29,42.3ZM1044.93,353.34c19.49,0,34.74-14.3,34.74-37.57s-15.24-37.69-34.74-37.69-34.85,14.3-34.85,37.69,15.36,37.57,34.85,37.57Z"/>
        <path class="cls-9" d="M1044.93,359.83c-24.36,0-42.04-18.53-42.04-44.06s17.68-44.05,42.04-44.05,42.05,18.53,42.05,44.05-17.68,44.06-42.05,44.06ZM1044.93,275.23c-22.33,0-38.53,17.05-38.53,40.54s16.2,40.54,38.53,40.54,38.53-17.05,38.53-40.54-16.21-40.54-38.53-40.54ZM1044.93,355.1c-21.56,0-36.61-16.17-36.61-39.33s15.06-39.45,36.61-39.45,36.49,16.22,36.49,39.45-15.01,39.33-36.49,39.33ZM1044.93,279.84c-19.49,0-33.1,14.78-33.1,35.93s13.61,35.81,33.1,35.81,32.98-14.73,32.98-35.81-13.56-35.93-32.98-35.93Z"/>
      </g>
      <g>
        <path class="cls-9" d="M1160.6,274.3v82.82h-5.32l-48.68-74.2v74.2h-5.32v-82.82h5.32l48.68,73.96v-73.96h5.32Z"/>
        <path class="cls-9" d="M1162.36,358.88h-8.02l-45.97-70.07v70.07h-8.83v-86.34h8.02l45.97,69.85v-69.85h8.83v86.34ZM1156.23,355.37h2.61v-79.31h-1.8v78.07l-51.38-78.07h-2.61v79.31h1.8v-78.32l51.38,78.32Z"/>
      </g>
    </g>
  </g>
</svg>